<svg width="90" height="50" viewBox="0 0 90 50" fill="none" xmlns="http://www.w3.org/2000/svg">
<g clip-path="url(#clip0_46_2)">
<g clip-path="url(#clip1_46_2)">
<g clip-path="url(#clip2_46_2)">
<path d="M89.0175 25.6633H0.982559C0.486433 25.6633 0.0842438 25.9837 0.0842438 26.3789C0.0842438 26.7741 0.486433 27.0945 0.982559 27.0945H89.0175C89.5136 27.0945 89.9158 26.7741 89.9158 26.3789C89.9158 25.9837 89.5136 25.6633 89.0175 25.6633Z" fill="white"/>
<path d="M89.0175 28.9677H0.982559C0.486433 28.9677 0.0842438 29.288 0.0842438 29.6832C0.0842438 30.0784 0.486433 30.3988 0.982559 30.3988H89.0175C89.5136 30.3988 89.9158 30.0784 89.9158 29.6832C89.9158 29.288 89.5136 28.9677 89.0175 28.9677Z" fill="white"/>
<g clip-path="url(#clip3_46_2)">
<g clip-path="url(#clip4_46_2)">
<g clip-path="url(#clip5_46_2)">
<g clip-path="url(#clip6_46_2)">
<path d="M5.72351 49.7561H2.53121V49.521C2.89345 49.521 3.12439 49.4066 3.22401 49.1778C3.3206 48.9521 3.3689 48.6825 3.3689 48.369V37.1075C3.3689 36.9508 3.29344 36.8724 3.1425 36.8724C3.08212 36.8724 2.99911 36.8959 2.89345 36.943L0.312439 37.7893V36.943L5.58767 35.0386V35.6734C5.34617 35.7831 5.15448 35.9555 5.0126 36.1906C4.8677 36.4257 4.81035 36.7 4.84054 37.0135V48.275C4.84054 48.6041 4.89336 48.8941 4.99902 49.1448C5.10467 49.3956 5.34617 49.521 5.72351 49.521V49.7561ZM8.16869 37.5777V35.7439H8.37245C8.4932 35.7439 8.6215 35.7204 8.75734 35.6734C8.89318 35.6264 9.04412 35.5715 9.21015 35.5088C9.46674 35.4148 9.77616 35.316 10.1384 35.2126C10.5007 35.1123 10.9459 35.0621 11.4742 35.0621C12.0779 35.0621 12.6168 35.1515 13.0907 35.3302C13.5677 35.512 13.9677 35.7549 14.2907 36.059C14.6167 36.3662 14.8657 36.7235 15.0378 37.1311C15.2129 37.5386 15.3004 37.9618 15.3004 38.4006C15.3004 39.0119 15.1223 39.5996 14.7661 40.1639C14.4129 40.7281 13.8665 41.1827 13.127 41.5275C14.1684 41.841 14.9457 42.3425 15.4589 43.0322C15.9721 43.7218 16.2287 44.5055 16.2287 45.3832C16.2287 46.0415 16.111 46.648 15.8755 47.2029C15.6431 47.7609 15.3035 48.2468 14.8567 48.6605C14.4129 49.0775 13.8816 49.4035 13.2628 49.6386C12.644 49.8737 11.9496 49.9912 11.1799 49.9912C10.6063 49.9912 10.1309 49.9364 9.75352 49.8266C9.37618 49.7169 9.05921 49.6151 8.80262 49.521C8.63659 49.4583 8.48565 49.4066 8.34981 49.3658C8.21397 49.3282 8.07812 49.3094 7.94228 49.3094H7.73852V47.4991H7.96492C8.35736 48.0634 8.84337 48.4897 9.42297 48.7781C10.0056 49.0696 10.6063 49.2154 11.2252 49.2154C11.7685 49.2154 12.2591 49.1166 12.6968 48.9191C13.1345 48.7248 13.5073 48.463 13.8152 48.1339C14.1262 47.8048 14.3601 47.4286 14.5171 47.0054C14.6771 46.5822 14.7571 46.1434 14.7571 45.6888C14.7571 45.2186 14.6665 44.7594 14.4854 44.3111C14.3043 43.866 14.0477 43.471 13.7156 43.1262C13.3835 42.7814 12.979 42.5071 12.5021 42.3033C12.0281 42.0996 11.4893 41.9977 10.8855 41.9977H9.84408V41.2219H10.9987C11.4667 41.2219 11.8772 41.1435 12.2304 40.9868C12.5866 40.83 12.8855 40.6184 13.127 40.352C13.3685 40.0855 13.5496 39.7877 13.6703 39.4586C13.7911 39.1294 13.8514 38.7846 13.8514 38.4241C13.8514 38.095 13.7941 37.7737 13.6794 37.4602C13.5677 37.1467 13.3986 36.8677 13.1722 36.6232C12.9458 36.3819 12.6696 36.1828 12.3436 36.0261C12.0206 35.8693 11.6478 35.791 11.2252 35.791C10.712 35.791 10.1988 35.9399 9.6856 36.2377C9.17242 36.5355 8.74225 36.9822 8.39509 37.5777H8.16869ZM22.9529 44.913H17.8135V43.7375H22.9529V44.913ZM37.0987 49.7561V49.521H37.2119C37.3176 49.521 37.4157 49.474 37.5062 49.38C37.5968 49.2859 37.6768 49.1762 37.7462 49.0508C37.8126 48.9254 37.8609 48.7875 37.8911 48.637C37.9213 48.4897 37.9364 48.3533 37.9364 48.2279V35.8615L32.0951 50.0147L26.5482 36.5903V48.2279C26.5482 48.3533 26.5633 48.4897 26.5935 48.637C26.6237 48.7875 26.6735 48.9254 26.7429 49.0508C26.8094 49.1762 26.8878 49.2859 26.9784 49.38C27.069 49.474 27.1746 49.521 27.2954 49.521H27.4086V49.7561H24.9408V49.521H25.054C25.1596 49.521 25.2577 49.474 25.3483 49.38C25.4388 49.2859 25.5143 49.1762 25.5747 49.0508C25.6351 48.9254 25.6803 48.7875 25.7105 48.637C25.7407 48.4897 25.7558 48.3533 25.7558 48.2279V35.6969C25.7558 35.5872 25.7407 35.4618 25.7105 35.3208C25.6803 35.1797 25.6351 35.0465 25.5747 34.9211C25.5143 34.7957 25.4388 34.6891 25.3483 34.6013C25.2577 34.5167 25.1596 34.4744 25.054 34.4744H24.9408V34.2393H27.2501L32.5027 47.0994L37.7553 34.2393H40.3136V34.4744H40.2004C40.0797 34.4744 39.974 34.5167 39.8835 34.6013C39.7929 34.6891 39.7144 34.7957 39.648 34.9211C39.5786 35.0465 39.5288 35.1797 39.4986 35.3208C39.4684 35.4618 39.4533 35.5872 39.4533 35.6969V48.2279C39.4533 48.3533 39.4684 48.4897 39.4986 48.637C39.5288 48.7875 39.5786 48.9254 39.648 49.0508C39.7144 49.1762 39.7929 49.2859 39.8835 49.38C39.974 49.474 40.0797 49.521 40.2004 49.521H40.3136V49.7561H37.0987ZM50.683 49.7561H48.4869V48.5571L48.3737 48.6746C47.9963 49.0665 47.5631 49.3721 47.0741 49.5915C46.582 49.811 45.9889 49.9207 45.2945 49.9207C44.7663 49.9207 44.3135 49.858 43.9361 49.7326C43.5588 49.6072 43.2494 49.4301 43.0079 49.2013C42.7664 48.9756 42.5898 48.7138 42.4781 48.416C42.3634 48.1182 42.306 47.8048 42.306 47.4756C42.306 46.9427 42.4464 46.4725 42.7271 46.065C43.0048 45.6575 43.4078 45.297 43.9361 44.9835C44.4644 44.67 45.1104 44.3832 45.8741 44.123C46.6349 43.866 47.5058 43.6121 48.4869 43.3613C48.4567 42.75 48.3359 42.2563 48.1246 41.8801C47.9133 41.504 47.6643 41.2093 47.3775 40.9962C47.0907 40.7861 46.7888 40.6451 46.4719 40.573C46.1549 40.504 45.8832 40.4695 45.6568 40.4695C45.2644 40.4695 44.9217 40.5322 44.6289 40.6576C44.3331 40.783 44.0765 40.9444 43.8591 41.1419C43.6388 41.3363 43.4531 41.5463 43.3022 41.772C43.1512 42.0008 43.0305 42.2171 42.9399 42.4209H42.7362V40.7046C42.8569 40.689 42.9701 40.6498 43.0758 40.5871C43.1814 40.5244 43.3097 40.4617 43.4607 40.399C43.6871 40.305 43.9965 40.167 44.3889 39.9852C44.7814 39.8065 45.3323 39.7172 46.0417 39.7172C46.8718 39.7172 47.5435 39.8269 48.0567 40.0463C48.5699 40.2658 48.9668 40.5557 49.2476 40.9162C49.5253 41.2767 49.7094 41.6874 49.8 42.1482C49.8906 42.6121 49.9358 43.087 49.9358 43.5729V48.2279C49.9358 48.5414 50.0038 48.8345 50.1396 49.1072C50.2755 49.3831 50.4566 49.521 50.683 49.521V49.7561ZM48.2378 47.8048L48.4869 47.5226V44.1607L48.2605 44.2077C47.8982 44.3017 47.4575 44.4271 46.9382 44.5838C46.416 44.7406 45.9209 44.9443 45.453 45.1951C44.9851 45.4459 44.5851 45.7437 44.2531 46.0885C43.921 46.4333 43.755 46.833 43.755 47.2875C43.755 47.7891 43.9512 48.2044 44.3436 48.5336C44.7361 48.8627 45.2493 49.0273 45.8832 49.0273C46.3813 49.0273 46.819 48.9144 47.1963 48.6887C47.5737 48.4599 47.9208 48.1652 48.2378 47.8048ZM61.6863 49.7561H60.3958C60.1392 49.7561 59.9007 49.6966 59.6803 49.5774C59.463 49.4615 59.2713 49.3329 59.1052 49.1919C58.909 49.0195 58.7279 48.8314 58.5619 48.6276L55.6412 44.7249L55.1658 45.2186V48.275C55.1658 48.3847 55.1809 48.5101 55.2111 48.6511C55.2413 48.7922 55.2896 48.9286 55.356 49.0602C55.4254 49.195 55.5054 49.3047 55.596 49.3894C55.6865 49.4771 55.7922 49.521 55.9129 49.521V49.7561H52.9697V49.521C53.0753 49.521 53.1734 49.4771 53.264 49.3894C53.3546 49.3047 53.43 49.1997 53.4904 49.0743C53.5508 48.9489 53.5961 48.8157 53.6262 48.6746C53.6564 48.5336 53.6715 48.4004 53.6715 48.275V36.3082C53.6715 36.0888 53.6036 35.8693 53.4678 35.6499C53.3319 35.4305 53.1508 35.3129 52.9244 35.2972V35.0621L55.1658 34.3333V44.1371L58.8336 40.5636C58.909 40.4852 58.9468 40.3912 58.9468 40.2814C58.9468 40.1717 58.8939 40.1169 58.7883 40.1169V39.8818H60.8259V40.1169C60.7354 40.1169 60.6403 40.1404 60.5406 40.1874C60.4441 40.2344 60.3505 40.2893 60.2599 40.352C60.1543 40.4147 60.0486 40.493 59.9429 40.5871L56.728 43.6904L60.0788 48.0869C60.275 48.369 60.4712 48.6119 60.6674 48.8157C60.8335 48.9881 61.0101 49.148 61.1972 49.2953C61.3874 49.4458 61.5504 49.521 61.6863 49.521V49.7561ZM68.0256 40.6811H65.4899V46.3471C65.4899 46.7546 65.4959 47.123 65.508 47.4521C65.5261 47.7812 65.5638 48.0555 65.6212 48.275C65.6846 48.4944 65.7766 48.6621 65.8974 48.7781C66.0151 48.8972 66.1812 48.9568 66.3955 48.9568C66.7094 48.9568 67.0068 48.8 67.2875 48.4866C67.5683 48.1731 67.7464 47.7969 67.8218 47.3581H68.0256V49.0743C67.8897 49.0743 67.7765 49.1213 67.686 49.2154C67.5652 49.3251 67.3947 49.4426 67.1743 49.568C66.957 49.6934 66.6279 49.7561 66.1872 49.7561C65.6468 49.7561 65.2257 49.6464 64.9239 49.427C64.622 49.2075 64.4016 48.9176 64.2627 48.5571C64.1299 48.1966 64.0514 47.7969 64.0273 47.3581C64.0062 46.9192 63.9956 46.4725 63.9956 46.018V40.6811H62.7277V39.8818H63.9956V37.7893C63.9956 37.5229 63.9609 37.2752 63.8914 37.0464C63.825 36.8207 63.6032 36.7 63.2258 36.6844V36.4492L65.4899 35.6969V39.8818H68.0256V40.6811ZM77.8923 49.7561H75.6962V48.5571L75.583 48.6746C75.2056 49.0665 74.7725 49.3721 74.2834 49.5915C73.7914 49.811 73.1982 49.9207 72.5039 49.9207C71.9756 49.9207 71.5228 49.858 71.1455 49.7326C70.7681 49.6072 70.4587 49.4301 70.2172 49.2013C69.9757 48.9756 69.7991 48.7138 69.6874 48.416C69.5727 48.1182 69.5153 47.8048 69.5153 47.4756C69.5153 46.9427 69.6557 46.4725 69.9365 46.065C70.2142 45.6575 70.6172 45.297 71.1455 44.9835C71.6737 44.67 72.3197 44.3832 73.0835 44.123C73.8442 43.866 74.7151 43.6121 75.6962 43.3613C75.666 42.75 75.5453 42.2563 75.3339 41.8801C75.1226 41.504 74.8736 41.2093 74.5868 40.9962C74.3 40.7861 73.9982 40.6451 73.6812 40.573C73.3642 40.504 73.0925 40.4695 72.8661 40.4695C72.4737 40.4695 72.1311 40.5322 71.8382 40.6576C71.5424 40.783 71.2858 40.9444 71.0685 41.1419C70.8481 41.3363 70.6625 41.5463 70.5115 41.772C70.3606 42.0008 70.2398 42.2171 70.1493 42.4209H69.9455V40.7046C70.0663 40.689 70.1795 40.6498 70.2851 40.5871C70.3908 40.5244 70.5191 40.4617 70.67 40.399C70.8964 40.305 71.2058 40.167 71.5983 39.9852C71.9907 39.8065 72.5416 39.7172 73.251 39.7172C74.0812 39.7172 74.7528 39.8269 75.266 40.0463C75.7792 40.2658 76.1762 40.5557 76.4569 40.9162C76.7346 41.2767 76.9188 41.6874 77.0093 42.1482C77.0999 42.6121 77.1452 43.087 77.1452 43.5729V48.2279C77.1452 48.5414 77.2131 48.8345 77.3489 49.1072C77.4848 49.3831 77.6659 49.521 77.8923 49.521V49.7561ZM75.4471 47.8048L75.6962 47.5226V44.1607L75.4698 44.2077C75.1075 44.3017 74.6668 44.4271 74.1476 44.5838C73.6253 44.7406 73.1303 44.9443 72.6624 45.1951C72.1945 45.4459 71.7945 45.7437 71.4624 46.0885C71.1304 46.4333 70.9643 46.833 70.9643 47.2875C70.9643 47.7891 71.1605 48.2044 71.553 48.5336C71.9454 48.8627 72.4586 49.0273 73.0925 49.0273C73.5906 49.0273 74.0283 48.9144 74.4057 48.6887C74.783 48.4599 75.1302 48.1652 75.4471 47.8048ZM84.9109 39.7172C85.7259 39.7172 86.4323 39.8583 87.03 40.1404C87.6247 40.4225 88.1183 40.7987 88.5107 41.2689C88.9031 41.7391 89.1975 42.2751 89.3937 42.877C89.5899 43.482 89.688 44.098 89.688 44.7249C89.688 45.3675 89.5899 45.9976 89.3937 46.6151C89.1975 47.2358 88.9001 47.7922 88.5016 48.2844C88.1002 48.7797 87.6051 49.1762 87.0164 49.474C86.4278 49.7718 85.7486 49.9207 84.9788 49.9207C84.4052 49.9207 83.8845 49.7984 83.4166 49.5539C82.9487 49.3126 82.5789 49.0195 82.3072 48.6746V49.7561H80.0884V49.521C80.1941 49.521 80.2922 49.474 80.3828 49.38C80.4733 49.2859 80.5533 49.1762 80.6228 49.0508C80.6892 48.9254 80.7375 48.7875 80.7677 48.637C80.7978 48.4897 80.8129 48.3533 80.8129 48.2279V36.2377C80.8129 35.9712 80.7752 35.7204 80.6997 35.4853C80.6243 35.2502 80.4054 35.1248 80.0432 35.1092V34.8741L82.3072 34.1452V40.8692C82.6544 40.5087 83.0664 40.2266 83.5434 40.0228C84.0173 39.8191 84.4732 39.7172 84.9109 39.7172ZM85.1373 49.1213C85.6806 49.09 86.1485 48.9521 86.541 48.7076C86.9334 48.4662 87.2625 48.1574 87.5281 47.7812C87.7907 47.4051 87.987 46.9772 88.1168 46.4976C88.2435 46.0211 88.3069 45.5321 88.3069 45.0305C88.3069 44.4663 88.2315 43.9177 88.0805 43.3848C87.9296 42.8519 87.7077 42.3739 87.4149 41.9507C87.1191 41.5275 86.7523 41.1858 86.3146 40.9256C85.8769 40.6686 85.3788 40.5401 84.8203 40.5401C84.5033 40.5401 84.1939 40.6137 83.892 40.7611C83.5902 40.9115 83.323 41.1074 83.0906 41.3488C82.8551 41.5933 82.6664 41.8833 82.5246 42.2187C82.3797 42.5572 82.3072 42.9146 82.3072 43.2908V46.2061C82.3072 46.6606 82.3902 47.0681 82.5563 47.4286C82.7223 47.7891 82.9411 48.0947 83.2128 48.3455C83.4845 48.5963 83.7909 48.7875 84.132 48.9191C84.4701 49.0539 84.8052 49.1213 85.1373 49.1213Z" fill="white"/>
</g>
</g>
</g>
</g>
<g clip-path="url(#clip7_46_2)">
<g clip-path="url(#clip8_46_2)">
<path d="M45.1464 2.5123C44.1242 1.49689 38.2506 -2.0305 30.2155 1.56383C30.2155 1.61787 30.2155 2.61425 30.2155 4.13261V21.2813H42.3897C42.8075 21.6532 43.8007 21.9169 44.9636 21.9169C46.1242 21.9169 47.1198 21.6532 47.5391 21.2813H59.7845V4.13261C59.7845 2.61425 59.7845 1.61787 59.7845 1.56383C52.0803 -1.96233 45.924 1.76771 45.1464 2.5123ZM44.0547 20.0538C44.0547 19.3779 38.3393 15.4281 31.7401 19.7378V3.01802C33.0471 2.23934 34.8049 1.76249 36.7452 1.76249C40.7841 1.76249 44.0547 3.13869 44.0547 5.6915V20.0538ZM58.3542 19.7378C51.755 15.4281 46.0432 19.3779 46.0432 20.0538V5.69181C46.0432 3.13899 49.3141 1.7628 53.3488 1.7628C55.2891 1.7628 57.047 2.23964 58.3542 3.01832V19.7378Z" fill="white"/>
</g>
</g>
</g>
</g>
</g>
<defs>
<clipPath id="clip0_46_2">
<rect width="90" height="50" fill="white"/>
</clipPath>
<clipPath id="clip1_46_2">
<rect width="89.8315" height="50.0294" fill="white" transform="translate(0.0842285 -0.0147095)"/>
</clipPath>
<clipPath id="clip2_46_2">
<rect width="89.8315" height="50.0294" fill="white" transform="translate(0.0842285 -0.0147095)"/>
</clipPath>
<clipPath id="clip3_46_2">
<rect width="89.3846" height="15.8695" fill="white" transform="translate(0.307693 34.1452)"/>
</clipPath>
<clipPath id="clip4_46_2">
<rect width="89.3846" height="15.8695" fill="white" transform="translate(0.307693 34.1452)"/>
</clipPath>
<clipPath id="clip5_46_2">
<rect width="89.3846" height="15.8695" fill="white" transform="translate(0.307693 34.1452)"/>
</clipPath>
<clipPath id="clip6_46_2">
<rect width="89.3846" height="15.8695" fill="white" transform="translate(0.307693 34.1452)"/>
</clipPath>
<clipPath id="clip7_46_2">
<rect width="29.5689" height="21.9316" fill="white" transform="translate(30.2155 -0.0147095)"/>
</clipPath>
<clipPath id="clip8_46_2">
<rect width="29.5689" height="21.9316" fill="white" transform="translate(30.2155 -0.0147095)"/>
</clipPath>
</defs>
</svg>
